# ProBuilder 4.5.2
# https://unity3d.com/unity/features/worldbuilding/probuilder
# 24.11.2021 20:04:15

mtllib ./Arch_60_out.mtl
o Arch 60 out

g Arch (2)
v -1.4375 -2.273317 -0.25
v -1.417522 -1.815749 -0.25
v -1.4375 -2.273317 0.25
v -1.417522 -1.815749 0.25
v -0.919425 -1.859327 -0.25
v -0.9375 -2.273317 -0.25
v -0.919425 -1.859327 0.25
v -0.9375 -2.273317 0.25
v -1.35774 -1.361664 -0.25
v -1.35774 -1.361664 0.25
v -0.8653369 -1.448488 -0.25
v -0.8653369 -1.448488 0.25
v -1.258611 -0.9145169 -0.25
v -1.258611 -0.9145169 0.25
v -0.7756476 -1.043926 -0.25
v -0.7756476 -1.043926 0.25
v -1.120886 -0.4777112 -0.25
v -1.120886 -0.4777112 0.25
v -0.6510401 -0.6487212 -0.25
v -0.6510401 -0.6487212 0.25
v -0.9456158 -0.05457091 -0.25
v -0.9456158 -0.05457091 0.25
v -0.4924617 -0.2658801 -0.25
v -0.4924617 -0.2658801 0.25
v -0.7341332 0.3516831 -0.25
v -0.7341332 0.3516831 0.25
v -0.3011208 0.1016831 -0.25
v -0.3011208 0.1016831 0.25
v -0.4880481 0.7379594 -0.25
v -0.4880481 0.7379594 0.25
v -0.07847238 0.4511714 -0.25
v -0.07847238 0.4511714 0.25
v -0.2092333 1.101318 -0.25
v -0.2092333 1.101318 0.25
v 0.173789 0.7799242 -0.25
v 0.173789 0.7799242 0.25
v 0.1001894 1.438994 -0.25
v 0.1001894 1.438994 0.25
v 0.4537427 1.08544 -0.25
v 0.4537427 1.08544 0.25
v 0.437865 1.748416 -0.25
v 0.437865 1.748416 0.25
v 0.7592587 1.365394 -0.25
v 0.7592587 1.365394 0.25
v 0.8012238 2.027231 -0.25
v 0.8012238 2.027231 0.25
v 1.088012 1.617656 -0.25
v 1.088012 1.617656 0.25
v 1.1875 2.273317 -0.25
v 1.1875 2.273317 0.25
v 1.4375 1.840304 -0.25
v 1.4375 1.840304 0.25

vt -0.25 -2.333855
vt -0.25 -1.875852
vt 0.25 -2.333855
vt 0.25 -1.875852
vt 0.25 -1.897662
vt 0.25 -2.312046
vt -0.25 -1.897662
vt -0.25 -2.312046
vt -1.4375 0.25
vt -0.9375 0.25
vt -1.4375 -0.25
vt -0.9375 -0.25
vt -0.25 -1.98524
vt -0.25 -1.527237
vt 0.25 -1.98524
vt 0.25 -1.527237
vt 0.25 -1.549045
vt 0.25 -1.96343
vt -0.25 -1.549045
vt -0.25 -1.96343
vt -0.25 -1.623255
vt -0.25 -1.165251
vt 0.25 -1.623255
vt 0.25 -1.165251
vt 0.25 -1.187062
vt 0.25 -1.601446
vt -0.25 -1.187062
vt -0.25 -1.601446
vt -0.25 -1.250662
vt -0.25 -0.7926584
vt 0.25 -1.250662
vt 0.25 -0.7926584
vt 0.25 -0.8144678
vt 0.25 -1.228852
vt -0.25 -0.8144678
vt -0.25 -1.228852
vt -0.25 -0.8702924
vt -0.25 -0.4122886
vt 0.25 -0.8702924
vt 0.25 -0.4122886
vt 0.25 -0.4340984
vt 0.25 -0.8484828
vt -0.25 -0.4340984
vt -0.25 -0.8484828
vt -0.25 -0.4850418
vt -0.25 -0.02703832
vt 0.25 -0.4850418
vt 0.25 -0.02703832
vt 0.25 -0.04884779
vt 0.25 -0.4632318
vt -0.25 -0.04884779
vt -0.25 -0.4632318
vt -0.25 -0.09784304
vt -0.25 0.3601605
vt 0.25 -0.09784304
vt 0.25 0.3601605
vt 0.25 0.338351
vt 0.25 -0.07603326
vt -0.25 0.338351
vt -0.25 -0.07603326
vt -0.25 0.2883577
vt -0.25 0.746361
vt 0.25 0.2883577
vt 0.25 0.746361
vt 0.25 0.7245511
vt 0.25 0.310167
vt -0.25 0.7245511
vt -0.25 0.310167
vt -0.25 0.6706209
vt -0.25 1.128625
vt 0.25 0.6706209
vt 0.25 1.128625
vt 0.25 1.106815
vt 0.25 0.6924308
vt -0.25 1.106815
vt -0.25 0.6924308
vt -1.046038 -0.25
vt -1.504041 -0.25
vt -1.046038 0.25
vt -1.504041 0.25
vt 1.482231 -0.25
vt 1.067847 -0.25
vt 1.482231 0.25
vt 1.067847 0.25
vt -1.41175 -0.25
vt -1.869753 -0.25
vt -1.41175 0.25
vt -1.869753 0.25
vt 1.847944 -0.25
vt 1.43356 -0.25
vt 1.847944 0.25
vt 1.43356 0.25
vt -1.764977 -0.25
vt -2.222981 -0.25
vt -1.764977 0.25
vt -2.222981 0.25
vt 2.201169 -0.25
vt 1.786785 -0.25
vt 2.201169 0.25
vt 1.786785 0.25
vt -0.25 0.8750004
vt -0.25 1.375001
vt 0.25 0.8750004
vt 0.25 1.375001
vt -1.4375 -2.273317
vt -1.417522 -1.815749
vt -0.9375 -2.273317
vt -0.919425 -1.859327
vt 1.417522 -1.815749
vt 1.4375 -2.273317
vt 0.919425 -1.859327
vt 0.9375 -2.273317
vt -1.35774 -1.361664
vt -0.8653369 -1.448488
vt 1.35774 -1.361664
vt 0.8653369 -1.448488
vt -1.258611 -0.9145169
vt -0.7756476 -1.043926
vt 1.258611 -0.9145169
vt 0.7756476 -1.043926
vt -1.120886 -0.4777112
vt -0.6510401 -0.6487212
vt 1.120886 -0.4777112
vt 0.6510401 -0.6487212
vt -0.9456158 -0.05457091
vt -0.4924617 -0.2658801
vt 0.9456158 -0.05457091
vt 0.4924617 -0.2658801
vt -0.7341332 0.3516831
vt -0.3011208 0.1016831
vt 0.7341332 0.3516831
vt 0.3011208 0.1016831
vt -0.4880481 0.7379594
vt -0.07847238 0.4511714
vt 0.4880481 0.7379594
vt 0.07847238 0.4511714
vt -0.2092333 1.101318
vt 0.173789 0.7799242
vt 0.2092333 1.101318
vt -0.173789 0.7799242
vt 0.1001894 1.438994
vt 0.4537427 1.08544
vt -0.1001894 1.438994
vt -0.4537427 1.08544
vt 0.437865 1.748416
vt 0.7592587 1.365394
vt -0.437865 1.748416
vt -0.7592587 1.365394
vt 0.8012238 2.027231
vt 1.088012 1.617656
vt -0.8012238 2.027231
vt -1.088012 1.617656
vt 1.1875 2.273317
vt 1.4375 1.840304
vt -1.1875 2.273317
vt -1.4375 1.840304

vn -0.9990482 0.0436188 0
vn 0.9990482 -0.04361892 0
vn 0 -1 0
vn -0.9914447 0.1305274 0
vn 0.9914448 -0.1305265 0
vn -0.9762962 0.2164387 0
vn 0.9762959 -0.2164398 0
vn -0.9537169 0.300706 0
vn 0.9537171 -0.3007055 0
vn -0.9238794 0.3826836 0
vn 0.9238791 -0.3826843 0
vn -0.8870108 0.4617487 0
vn 0.8870112 -0.4617479 0
vn -0.8433914 0.5372997 0
vn 0.8433917 -0.5372993 0
vn -0.7933533 0.6087614 0
vn 0.7933527 -0.6087623 0
vn -0.7372775 0.6755901 0
vn 0.7372777 -0.6755898 0
vn -0.6755903 0.7372773 0
vn 0.67559 -0.7372775 0
vn -0.6087612 0.7933536 0
vn 0.608762 -0.7933529 0
vn -0.5373002 0.8433911 0
vn 0.537299 -0.8433918 0
vn 0.8660255 0.4999998 0
vn 0 0 1
vn 0 0 -1

usemtl ProBuilderDefault
f 3/3/1 4/4/1 2/2/1 1/1/1
f 7/7/2 8/8/2 6/6/2 5/5/2
f 1/11/3 6/12/3 8/10/3 3/9/3
f 4/15/4 10/16/4 9/14/4 2/13/4
f 12/19/5 7/20/5 5/18/5 11/17/5
f 10/23/6 14/24/6 13/22/6 9/21/6
f 16/27/7 12/28/7 11/26/7 15/25/7
f 14/31/8 18/32/8 17/30/8 13/29/8
f 20/35/9 16/36/9 15/34/9 19/33/9
f 18/39/10 22/40/10 21/38/10 17/37/10
f 24/43/11 20/44/11 19/42/11 23/41/11
f 22/47/12 26/48/12 25/46/12 21/45/12
f 28/51/13 24/52/13 23/50/13 27/49/13
f 26/55/14 30/56/14 29/54/14 25/53/14
f 32/59/15 28/60/15 27/58/15 31/57/15
f 30/63/16 34/64/16 33/62/16 29/61/16
f 36/67/17 32/68/17 31/66/17 35/65/17
f 34/71/18 38/72/18 37/70/18 33/69/18
f 40/75/19 36/76/19 35/74/19 39/73/19
f 38/79/20 42/80/20 41/78/20 37/77/20
f 44/83/21 40/84/21 39/82/21 43/81/21
f 42/87/22 46/88/22 45/86/22 41/85/22
f 48/91/23 44/92/23 43/90/23 47/89/23
f 46/95/24 50/96/24 49/94/24 45/93/24
f 52/99/25 48/100/25 47/98/25 51/97/25
f 51/103/26 49/104/26 50/102/26 52/101/26
f 8/107/27 7/108/27 4/106/27 3/105/27
f 5/111/28 6/112/28 1/110/28 2/109/28
f 7/108/27 12/114/27 10/113/27 4/106/27
f 11/116/28 5/111/28 2/109/28 9/115/28
f 12/114/27 16/118/27 14/117/27 10/113/27
f 15/120/28 11/116/28 9/115/28 13/119/28
f 16/118/27 20/122/27 18/121/27 14/117/27
f 19/124/28 15/120/28 13/119/28 17/123/28
f 20/122/27 24/126/27 22/125/27 18/121/27
f 23/128/28 19/124/28 17/123/28 21/127/28
f 24/126/27 28/130/27 26/129/27 22/125/27
f 27/132/28 23/128/28 21/127/28 25/131/28
f 28/130/27 32/134/27 30/133/27 26/129/27
f 31/136/28 27/132/28 25/131/28 29/135/28
f 32/134/27 36/138/27 34/137/27 30/133/27
f 35/140/28 31/136/28 29/135/28 33/139/28
f 36/138/27 40/142/27 38/141/27 34/137/27
f 39/144/28 35/140/28 33/139/28 37/143/28
f 40/142/27 44/146/27 42/145/27 38/141/27
f 43/148/28 39/144/28 37/143/28 41/147/28
f 44/146/27 48/150/27 46/149/27 42/145/27
f 47/152/28 43/148/28 41/147/28 45/151/28
f 48/150/27 52/154/27 50/153/27 46/149/27
f 51/156/28 47/152/28 45/151/28 49/155/28

