# ProBuilder 4.5.2
# https://unity3d.com/unity/features/worldbuilding/probuilder
# 24.11.2021 20:05:11

mtllib ./Arch_60_in.mtl
o Arch 60 in

g Arch (3)
v -1.25 -1.948558 -0.25
v -1.232876 -1.556357 -0.25
v -1.25 -1.948558 0.25
v -1.232876 -1.556357 0.25
v -0.7347789 -1.599935 -0.25
v -0.75 -1.948558 -0.25
v -0.7347789 -1.599935 0.25
v -0.75 -1.948558 0.25
v -1.181635 -1.167141 -0.25
v -1.181635 -1.167141 0.25
v -0.6892309 -1.253965 -0.25
v -0.6892309 -1.253965 0.25
v -1.096666 -0.7838721 -0.25
v -1.096666 -0.7838721 0.25
v -0.6137033 -0.9132817 -0.25
v -0.6137033 -0.9132817 0.25
v -0.9786167 -0.4094673 -0.25
v -0.9786167 -0.4094673 0.25
v -0.5087705 -0.5804774 -0.25
v -0.5087705 -0.5804774 0.25
v -0.8283849 -0.04677558 -0.25
v -0.8283849 -0.04677558 0.25
v -0.375231 -0.2580848 -0.25
v -0.375231 -0.2580848 0.25
v -0.6471143 0.3014421 -0.25
v -0.6471143 0.3014421 0.25
v -0.2141016 0.05144215 -0.25
v -0.2141016 0.05144215 0.25
v -0.4361842 0.6325362 -0.25
v -0.4361842 0.6325362 0.25
v -0.02660823 0.3457479 -0.25
v -0.02660823 0.3457479 0.25
v -0.1972001 0.9439862 -0.25
v -0.1972001 0.9439862 0.25
v 0.1858222 0.6225924 -0.25
v 0.1858222 0.6225924 0.25
v 0.06801963 1.233423 -0.25
v 0.06801963 1.233423 0.25
v 0.4215729 0.8798692 -0.25
v 0.4215729 0.8798692 0.25
v 0.3574557 1.498642 -0.25
v 0.3574557 1.498642 0.25
v 0.6788495 1.11562 -0.25
v 0.6788495 1.11562 0.25
v 0.668906 1.737626 -0.25
v 0.668906 1.737626 0.25
v 0.9556942 1.32805 -0.25
v 0.9556942 1.32805 0.25
v 1 1.948557 -0.25
v 1 1.948557 0.25
v 1.25 1.515544 -0.25
v 1.25 1.515544 0.25

vt -0.25 -2.001227
vt -0.25 -1.608653
vt 0.25 -2.001227
vt 0.25 -1.608653
vt 0.25 -1.630463
vt 0.25 -1.979418
vt -0.25 -1.630463
vt -0.25 -1.979418
vt -1.25 0.25
vt -0.75 0.25
vt -1.25 -0.25
vt -0.75 -0.25
vt -0.25 -1.703965
vt -0.25 -1.311391
vt 0.25 -1.703965
vt 0.25 -1.311391
vt 0.25 -1.3332
vt 0.25 -1.682155
vt -0.25 -1.3332
vt -0.25 -1.682155
vt -0.25 -1.395228
vt -0.25 -1.002653
vt 0.25 -1.395228
vt 0.25 -1.002653
vt 0.25 -1.024463
vt 0.25 -1.373418
vt -0.25 -1.024463
vt -0.25 -1.373418
vt -0.25 -1.077366
vt -0.25 -0.6847921
vt 0.25 -1.077366
vt 0.25 -0.6847921
vt 0.25 -0.7066013
vt 0.25 -1.055556
vt -0.25 -0.7066013
vt -0.25 -1.055556
vt -0.25 -0.7527989
vt -0.25 -0.3602241
vt 0.25 -0.7527989
vt 0.25 -0.3602241
vt 0.25 -0.382034
vt 0.25 -0.7309892
vt -0.25 -0.382034
vt -0.25 -0.7309892
vt -0.25 -0.4239959
vt -0.25 -0.03142155
vt 0.25 -0.4239959
vt 0.25 -0.03142155
vt 0.25 -0.05323134
vt 0.25 -0.4021864
vt -0.25 -0.05323134
vt -0.25 -0.4021864
vt -0.25 -0.09346045
vt -0.25 0.2991141
vt 0.25 -0.09346045
vt 0.25 0.2991141
vt 0.25 0.2773044
vt 0.25 -0.07165074
vt -0.25 0.2773044
vt -0.25 -0.07165074
vt -0.25 0.2362924
vt -0.25 0.6288666
vt 0.25 0.2362924
vt 0.25 0.6288666
vt 0.25 0.6070572
vt 0.25 0.2581021
vt -0.25 0.6070572
vt -0.25 0.2581021
vt -0.25 0.5627529
vt -0.25 0.9553276
vt 0.25 0.5627529
vt 0.25 0.9553276
vt 0.25 0.9335182
vt 0.25 0.584563
vt -0.25 0.9335182
vt -0.25 0.584563
vt -0.8834382 -0.25
vt -1.276013 -0.25
vt -0.8834382 0.25
vt -1.276013 0.25
vt 1.254202 -0.25
vt 0.9052473 -0.25
vt 1.254202 0.25
vt 0.9052473 0.25
vt -1.195904 -0.25
vt -1.588479 -0.25
vt -1.195904 0.25
vt -1.588479 0.25
vt 1.566669 -0.25
vt 1.217714 -0.25
vt 1.566669 0.25
vt 1.217714 0.25
vt -1.497776 -0.25
vt -1.89035 -0.25
vt -1.497776 0.25
vt -1.89035 0.25
vt 1.868541 -0.25
vt 1.519585 -0.25
vt 1.868541 0.25
vt 1.519585 0.25
vt -0.25 0.6875003
vt -0.25 1.1875
vt 0.25 0.6875003
vt 0.25 1.1875
vt -1.25 -1.948558
vt -1.232876 -1.556357
vt -0.75 -1.948558
vt -0.7347789 -1.599935
vt 1.232876 -1.556357
vt 1.25 -1.948558
vt 0.7347789 -1.599935
vt 0.75 -1.948558
vt -1.181635 -1.167141
vt -0.6892309 -1.253965
vt 1.181635 -1.167141
vt 0.6892309 -1.253965
vt -1.096666 -0.7838721
vt -0.6137033 -0.9132817
vt 1.096666 -0.7838721
vt 0.6137033 -0.9132817
vt -0.9786167 -0.4094673
vt -0.5087705 -0.5804774
vt 0.9786167 -0.4094673
vt 0.5087705 -0.5804774
vt -0.8283849 -0.04677558
vt -0.375231 -0.2580848
vt 0.8283849 -0.04677558
vt 0.375231 -0.2580848
vt -0.6471143 0.3014421
vt -0.2141016 0.05144215
vt 0.6471143 0.3014421
vt 0.2141016 0.05144215
vt -0.4361842 0.6325362
vt -0.02660823 0.3457479
vt 0.4361842 0.6325362
vt 0.02660823 0.3457479
vt -0.1972001 0.9439862
vt 0.1858222 0.6225924
vt 0.1972001 0.9439862
vt -0.1858222 0.6225924
vt 0.06801963 1.233423
vt 0.4215729 0.8798692
vt -0.06801963 1.233423
vt -0.4215729 0.8798692
vt 0.3574557 1.498642
vt 0.6788495 1.11562
vt -0.3574557 1.498642
vt -0.6788495 1.11562
vt 0.668906 1.737626
vt 0.9556942 1.32805
vt -0.668906 1.737626
vt -0.9556942 1.32805
vt 1 1.948557
vt 1.25 1.515544
vt -1 1.948557
vt -1.25 1.515544

vn -0.9990482 0.04361898 0
vn 0.9990482 -0.04361914 0
vn 0 -1 0
vn -0.9914448 0.1305266 0
vn 0.9914448 -0.1305267 0
vn -0.9762961 0.2164393 0
vn 0.976296 -0.2164395 0
vn -0.9537168 0.3007064 0
vn 0.9537169 -0.3007058 0
vn -0.9238796 0.3826834 0
vn 0.9238794 -0.3826836 0
vn -0.8870109 0.4617485 0
vn 0.8870109 -0.4617485 0
vn -0.8433915 0.5372995 0
vn 0.8433917 -0.5372993 0
vn -0.7933532 0.6087616 0
vn 0.7933531 -0.6087618 0
vn -0.7372772 0.6755905 0
vn 0.7372774 -0.6755902 0
vn -0.6755908 0.7372769 0
vn 0.6755905 -0.7372771 0
vn -0.6087613 0.7933534 0
vn 0.6087615 -0.7933533 0
vn -0.5372997 0.8433914 0
vn 0.5372998 -0.8433913 0
vn 0.8660256 0.4999996 0
vn 0 0 1
vn 0 0 -1

usemtl ProBuilderDefault
f 3/3/1 4/4/1 2/2/1 1/1/1
f 7/7/2 8/8/2 6/6/2 5/5/2
f 1/11/3 6/12/3 8/10/3 3/9/3
f 4/15/4 10/16/4 9/14/4 2/13/4
f 12/19/5 7/20/5 5/18/5 11/17/5
f 10/23/6 14/24/6 13/22/6 9/21/6
f 16/27/7 12/28/7 11/26/7 15/25/7
f 14/31/8 18/32/8 17/30/8 13/29/8
f 20/35/9 16/36/9 15/34/9 19/33/9
f 18/39/10 22/40/10 21/38/10 17/37/10
f 24/43/11 20/44/11 19/42/11 23/41/11
f 22/47/12 26/48/12 25/46/12 21/45/12
f 28/51/13 24/52/13 23/50/13 27/49/13
f 26/55/14 30/56/14 29/54/14 25/53/14
f 32/59/15 28/60/15 27/58/15 31/57/15
f 30/63/16 34/64/16 33/62/16 29/61/16
f 36/67/17 32/68/17 31/66/17 35/65/17
f 34/71/18 38/72/18 37/70/18 33/69/18
f 40/75/19 36/76/19 35/74/19 39/73/19
f 38/79/20 42/80/20 41/78/20 37/77/20
f 44/83/21 40/84/21 39/82/21 43/81/21
f 42/87/22 46/88/22 45/86/22 41/85/22
f 48/91/23 44/92/23 43/90/23 47/89/23
f 46/95/24 50/96/24 49/94/24 45/93/24
f 52/99/25 48/100/25 47/98/25 51/97/25
f 51/103/26 49/104/26 50/102/26 52/101/26
f 8/107/27 7/108/27 4/106/27 3/105/27
f 5/111/28 6/112/28 1/110/28 2/109/28
f 7/108/27 12/114/27 10/113/27 4/106/27
f 11/116/28 5/111/28 2/109/28 9/115/28
f 12/114/27 16/118/27 14/117/27 10/113/27
f 15/120/28 11/116/28 9/115/28 13/119/28
f 16/118/27 20/122/27 18/121/27 14/117/27
f 19/124/28 15/120/28 13/119/28 17/123/28
f 20/122/27 24/126/27 22/125/27 18/121/27
f 23/128/28 19/124/28 17/123/28 21/127/28
f 24/126/27 28/130/27 26/129/27 22/125/27
f 27/132/28 23/128/28 21/127/28 25/131/28
f 28/130/27 32/134/27 30/133/27 26/129/27
f 31/136/28 27/132/28 25/131/28 29/135/28
f 32/134/27 36/138/27 34/137/27 30/133/27
f 35/140/28 31/136/28 29/135/28 33/139/28
f 36/138/27 40/142/27 38/141/27 34/137/27
f 39/144/28 35/140/28 33/139/28 37/143/28
f 40/142/27 44/146/27 42/145/27 38/141/27
f 43/148/28 39/144/28 37/143/28 41/147/28
f 44/146/27 48/150/27 46/149/27 42/145/27
f 47/152/28 43/148/28 41/147/28 45/151/28
f 48/150/27 52/154/27 50/153/27 46/149/27
f 51/156/28 47/152/28 45/151/28 49/155/28

