# ProBuilder 4.5.2
# https://unity3d.com/unity/features/worldbuilding/probuilder
# 24.11.2021 20:04:33

mtllib ./Arch_30_in.mtl
o Arch 30 in

g Arch (5)
v -0.5179492 -1.125 -0.2500001
v -0.5008255 -0.7327994 -0.2500001
v -0.5179492 -1.125 0.2499999
v -0.5008255 -0.7327994 0.2499999
v -0.002728105 -0.7763773 -0.2500001
v -0.01794922 -1.125 -0.2500001
v -0.002728105 -0.7763773 0.2499999
v -0.01794922 -1.125 0.2499999
v -0.4495841 -0.3435835 -0.2500001
v -0.4495841 -0.3435835 0.2499999
v 0.04281986 -0.4304075 -0.2500001
v 0.04281986 -0.4304075 0.2499999
v -0.3646156 0.03968549 -0.2500001
v -0.3646156 0.03968549 0.2499999
v 0.1183475 -0.08972406 -0.2500001
v 0.1183475 -0.08972406 0.2499999
v -0.2465659 0.4140903 -0.2500001
v -0.2465659 0.4140903 0.2499999
v 0.2232803 0.2430803 -0.2500001
v 0.2232803 0.2430803 0.2499999
v -0.0963341 0.776782 -0.2500001
v -0.0963341 0.776782 0.2499999
v 0.3568197 0.5654728 -0.2500001
v 0.3568197 0.5654728 0.2499999
v 0.0849365 1.125 -0.2500001
v 0.0849365 1.125 0.2499999
v 0.5179492 0.8749998 -0.2500001
v 0.5179492 0.8749998 0.2499999

vt -0.2500001 -1.146522
vt -0.2500001 -0.7539474
vt 0.2499999 -1.146522
vt 0.2499999 -0.7539474
vt 0.2500001 -0.7757574
vt 0.2500001 -1.124712
vt -0.2499999 -0.7757574
vt -0.2499999 -1.124712
vt -0.5179492 0.2499999
vt -0.01794922 0.2499999
vt -0.5179492 -0.2500001
vt -0.01794922 -0.2500001
vt -0.2500001 -0.7919012
vt -0.2500001 -0.3993267
vt 0.2499999 -0.7919012
vt 0.2499999 -0.3993267
vt 0.2500001 -0.4211361
vt 0.2500001 -0.7700913
vt -0.2499999 -0.4211361
vt -0.2499999 -0.7700913
vt -0.2500001 -0.4327469
vt -0.2500001 -0.04017236
vt 0.2499999 -0.4327469
vt 0.2499999 -0.04017236
vt 0.2500001 -0.06198217
vt 0.2500001 -0.4109372
vt -0.2499999 -0.06198217
vt -0.2499999 -0.4109372
vt -0.2500001 -0.0717935
vt -0.2500001 0.3207809
vt 0.2499999 -0.0717935
vt 0.2499999 0.3207809
vt 0.2500001 0.2989714
vt 0.2500001 -0.04998358
vt -0.2499999 0.2989714
vt -0.2499999 -0.04998358
vt -0.2500001 0.2882128
vt -0.2500001 0.6807876
vt 0.2499999 0.2882128
vt 0.2499999 0.6807876
vt 0.2500001 0.6589778
vt 0.2500001 0.3100226
vt -0.2499999 0.6589778
vt -0.2499999 0.3100226
vt -0.2500001 0.644532
vt -0.2500001 1.037106
vt 0.2499999 0.644532
vt 0.2499999 1.037106
vt 0.2500001 1.015297
vt 0.2500001 0.6663415
vt -0.2499999 1.015297
vt -0.2499999 0.6663415
vt -0.01105733 0.2499999
vt 0.4889427 0.2499999
vt -0.01105733 -0.2500001
vt 0.4889427 -0.2500001
vt -0.5179492 -1.125
vt -0.5008255 -0.7327994
vt -0.01794922 -1.125
vt -0.002728105 -0.7763773
vt 0.5008255 -0.7327994
vt 0.5179492 -1.125
vt 0.002728105 -0.7763773
vt 0.01794922 -1.125
vt -0.4495841 -0.3435835
vt 0.04281986 -0.4304075
vt 0.4495841 -0.3435835
vt -0.04281986 -0.4304075
vt -0.3646156 0.03968549
vt 0.1183475 -0.08972406
vt 0.3646156 0.03968549
vt -0.1183475 -0.08972406
vt -0.2465659 0.4140903
vt 0.2232803 0.2430803
vt 0.2465659 0.4140903
vt -0.2232803 0.2430803
vt -0.0963341 0.776782
vt 0.3568197 0.5654728
vt 0.0963341 0.776782
vt -0.3568197 0.5654728
vt 0.0849365 1.125
vt 0.5179492 0.8749998
vt -0.0849365 1.125
vt -0.5179492 0.8749998

vn -0.9990482 0.04361898 0
vn 0.9990482 -0.04361914 0
vn 0 -1 0
vn -0.9914448 0.1305266 0
vn 0.9914448 -0.1305267 0
vn -0.9762961 0.2164393 0
vn 0.976296 -0.2164395 0
vn -0.9537168 0.3007064 0
vn 0.9537169 -0.3007058 0
vn -0.9238796 0.3826834 0
vn 0.9238794 -0.3826836 0
vn -0.8870109 0.4617485 0
vn 0.8870109 -0.4617485 0
vn 0.5 0.8660254 0
vn 0 0 1
vn 0 0 -1

usemtl ProBuilderDefault
f 3/3/1 4/4/1 2/2/1 1/1/1
f 7/7/2 8/8/2 6/6/2 5/5/2
f 1/11/3 6/12/3 8/10/3 3/9/3
f 4/15/4 10/16/4 9/14/4 2/13/4
f 12/19/5 7/20/5 5/18/5 11/17/5
f 10/23/6 14/24/6 13/22/6 9/21/6
f 16/27/7 12/28/7 11/26/7 15/25/7
f 14/31/8 18/32/8 17/30/8 13/29/8
f 20/35/9 16/36/9 15/34/9 19/33/9
f 18/39/10 22/40/10 21/38/10 17/37/10
f 24/43/11 20/44/11 19/42/11 23/41/11
f 22/47/12 26/48/12 25/46/12 21/45/12
f 28/51/13 24/52/13 23/50/13 27/49/13
f 27/55/14 25/56/14 26/54/14 28/53/14
f 8/59/15 7/60/15 4/58/15 3/57/15
f 5/63/16 6/64/16 1/62/16 2/61/16
f 7/60/15 12/66/15 10/65/15 4/58/15
f 11/68/16 5/63/16 2/61/16 9/67/16
f 12/66/15 16/70/15 14/69/15 10/65/15
f 15/72/16 11/68/16 9/67/16 13/71/16
f 16/70/15 20/74/15 18/73/15 14/69/15
f 19/76/16 15/72/16 13/71/16 17/75/16
f 20/74/15 24/78/15 22/77/15 18/73/15
f 23/80/16 19/76/16 17/75/16 21/79/16
f 24/78/15 28/82/15 26/81/15 22/77/15
f 27/84/16 23/80/16 21/79/16 25/83/16

