# ProBuilder 4.5.2
# https://unity3d.com/unity/features/worldbuilding/probuilder
# 23.11.2021 18:21:41

mtllib ./Pipe.mtl
o Pipe

g Pipe
v -2.377641 0 0.7725425
v -2.5 0 0
v -2.377641 0.35 0.7725425
v -2.5 0.35 0
v -2 0 0
v -1.902113 0 0.618034
v -2 0.35 0
v -1.902113 0.35 0.618034
v -2.022542 0 1.469463
v -2.022542 0.35 1.469463
v -1.618034 0 1.17557
v -1.618034 0.35 1.17557
v -1.469463 0 2.022542
v -1.469463 0.35 2.022542
v -1.175571 0 1.618034
v -1.175571 0.35 1.618034
v -0.7725425 0 2.377641
v -0.7725425 0.35 2.377641
v -0.6180339 0 1.902113
v -0.6180339 0.35 1.902113
v 0 0 2.5
v 0 0.35 2.5
v 0 0 2
v 0 0.35 2
v 0.7725425 0 2.377641
v 0.7725425 0.35 2.377641
v 0.6180339 0 1.902113
v 0.6180339 0.35 1.902113
v 1.469463 0 2.022542
v 1.469463 0.35 2.022542
v 1.17557 0 1.618034
v 1.17557 0.35 1.618034
v 2.022543 0 1.469463
v 2.022543 0.35 1.469463
v 1.618034 0 1.17557
v 1.618034 0.35 1.17557
v 2.377641 0 0.7725426
v 2.377641 0.35 0.7725426
v 1.902113 0 0.6180341
v 1.902113 0.35 0.6180341
v 2.5 0 -2.185569E-07
v 2.5 0.35 -2.185569E-07
v 2 0 -1.748456E-07
v 2 0.35 -1.748456E-07
v 2.377642 0 -0.7725424
v 2.377642 0.35 -0.7725424
v 1.902113 0 -0.6180339
v 1.902113 0.35 -0.6180339
v 2.022543 0 -1.469463
v 2.022543 0.35 -1.469463
v 1.618034 0 -1.17557
v 1.618034 0.35 -1.17557
v 1.469464 0 -2.022542
v 1.469464 0.35 -2.022542
v 1.175571 0 -1.618034
v 1.175571 0.35 -1.618034
v 0.7725427 0 -2.377641
v 0.7725427 0.35 -2.377641
v 0.6180341 0 -1.902113
v 0.6180341 0.35 -1.902113
v 0 0 -2.5
v 0 0.35 -2.5
v 0 0 -2
v 0 0.35 -2
v -0.7725428 0 -2.377641
v -0.7725428 0.35 -2.377641
v -0.6180342 0 -1.902113
v -0.6180342 0.35 -1.902113
v -1.469463 0 -2.022543
v -1.469463 0.35 -2.022543
v -1.17557 0 -1.618034
v -1.17557 0.35 -1.618034
v -2.022542 0 -1.469463
v -2.022542 0.35 -1.469463
v -1.618034 0 -1.175571
v -1.618034 0.35 -1.175571
v -2.377641 0 -0.7725424
v -2.377641 0.35 -0.7725424
v -1.902113 0 -0.6180339
v -1.902113 0.35 -0.6180339
v -2.377641 0.7 0.7725425
v -2.5 0.7 0
v -2 0.7 0
v -1.902113 0.7 0.618034
v -2.022542 0.7 1.469463
v -1.618034 0.7 1.17557
v -1.469463 0.7 2.022542
v -1.175571 0.7 1.618034
v -0.7725425 0.7 2.377641
v -0.6180339 0.7 1.902113
v 0 0.7 2.5
v 0 0.7 2
v 0.7725425 0.7 2.377641
v 0.6180339 0.7 1.902113
v 1.469463 0.7 2.022542
v 1.17557 0.7 1.618034
v 2.022543 0.7 1.469463
v 1.618034 0.7 1.17557
v 2.377641 0.7 0.7725426
v 1.902113 0.7 0.6180341
v 2.5 0.7 -2.185569E-07
v 2 0.7 -1.748456E-07
v 2.377642 0.7 -0.7725424
v 1.902113 0.7 -0.6180339
v 2.022543 0.7 -1.469463
v 1.618034 0.7 -1.17557
v 1.469464 0.7 -2.022542
v 1.175571 0.7 -1.618034
v 0.7725427 0.7 -2.377641
v 0.6180341 0.7 -1.902113
v 0 0.7 -2.5
v 0 0.7 -2
v -0.7725428 0.7 -2.377641
v -0.6180342 0.7 -1.902113
v -1.469463 0.7 -2.022543
v -1.17557 0.7 -1.618034
v -2.022542 0.7 -1.469463
v -1.618034 0.7 -1.175571
v -2.377641 0.7 -0.7725424
v -1.902113 0.7 -0.6180339

vt 0.7821723 0
vt 0 0
vt 0.7821723 0.35
vt 0 0.35
vt -0.07821719 0
vt -0.7039551 0
vt -0.07821719 0.35
vt -0.7039551 0.35
vt 1.526062 0
vt 0.74389 0
vt 1.526062 0.35
vt 0.74389 0.35
vt -0.8221073 0
vt -1.447845 0
vt -0.8221073 0.35
vt -1.447845 0.35
vt 2.158853 0
vt 1.376681 0
vt 2.158853 0.35
vt 1.376681 0.35
vt -1.454898 0
vt -2.080636 0
vt -1.454898 0.35
vt -2.080636 0.35
vt 2.618603 0
vt 1.83643 0
vt 2.618603 0.35
vt 1.83643 0.35
vt -1.914647 0
vt -2.540385 0
vt -1.914647 0.35
vt -2.540385 0.35
vt 2.860307 0
vt 2.078134 0
vt 2.860307 0.35
vt 2.078134 0.35
vt -2.156352 0
vt -2.78209 0
vt -2.156352 0.35
vt -2.78209 0.35
vt -0.78217 0
vt -0.78217 0.35
vt 0.7039557 0
vt 0.07821799 0
vt 0.7039557 0.35
vt 0.07821799 0.35
vt -0.7438906 0
vt -1.526063 0
vt -0.7438906 0.35
vt -1.526063 0.35
vt 1.447843 0
vt 0.8221055 0
vt 1.447843 0.35
vt 0.8221055 0.35
vt -1.376682 0
vt -2.158854 0
vt -1.376682 0.35
vt -2.158854 0.35
vt 2.080636 0
vt 1.454899 0
vt 2.080636 0.35
vt 1.454899 0.35
vt -1.836429 0
vt -2.618602 0
vt -1.836429 0.35
vt -2.618602 0.35
vt 2.540385 0
vt 1.914647 0
vt 2.540385 0.35
vt 1.914647 0.35
vt -2.078135 0
vt -2.860307 0
vt -2.078135 0.35
vt -2.860307 0.35
vt 2.78209 0
vt 2.156352 0
vt 2.78209 0.35
vt 2.156352 0.35
vt 0.7821723 0.7
vt 0 0.7
vt -0.07821719 0.7
vt -0.7039551 0.7
vt 1.526062 0.7
vt 0.74389 0.7
vt -0.8221073 0.7
vt -1.447845 0.7
vt 2.158853 0.7
vt 1.376681 0.7
vt -1.454898 0.7
vt -2.080636 0.7
vt 2.618603 0.7
vt 1.83643 0.7
vt -1.914647 0.7
vt -2.540385 0.7
vt 2.860307 0.7
vt 2.078134 0.7
vt -2.156352 0.7
vt -2.78209 0.7
vt -0.78217 0.7
vt 0.7039557 0.7
vt 0.07821799 0.7
vt -0.7438906 0.7
vt -1.526063 0.7
vt 1.447843 0.7
vt 0.8221055 0.7
vt -1.376682 0.7
vt -2.158854 0.7
vt 2.080636 0.7
vt 1.454899 0.7
vt -1.836429 0.7
vt -2.618602 0.7
vt 2.540385 0.7
vt 1.914647 0.7
vt -2.078135 0.7
vt -2.860307 0.7
vt 2.78209 0.7
vt 2.156352 0.7
vt 0.1223586 0.7725425
vt 0.5 0
vt 0.5978869 0.618034
vt -0.1223586 0.7725425
vt -0.5978869 0.618034
vt -0.5 0
vt 0.4774575 1.469463
vt 0.881966 1.17557
vt -0.4774575 1.469463
vt -0.881966 1.17557
vt 1.030537 2.022542
vt 1.324429 1.618034
vt -1.030537 2.022542
vt -1.324429 1.618034
vt 1.727458 2.377641
vt 1.881966 1.902113
vt -1.727458 2.377641
vt -1.881966 1.902113
vt 2.5 2.5
vt 2.5 2
vt -2.5 2.5
vt -2.5 2
vt 3.272542 2.377641
vt 3.118034 1.902113
vt -3.272542 2.377641
vt -3.118034 1.902113
vt 3.969463 2.022542
vt 3.67557 1.618034
vt -3.969463 2.022542
vt -3.67557 1.618034
vt 4.522543 1.469463
vt 4.118034 1.17557
vt -4.522543 1.469463
vt -4.118034 1.17557
vt 4.877641 0.7725426
vt 4.402113 0.6180341
vt -4.877641 0.7725426
vt -4.402113 0.6180341
vt 5 -2.185569E-07
vt 4.5 -1.748456E-07
vt -5 -2.185569E-07
vt -4.5 -1.748456E-07
vt 4.877642 -0.7725424
vt 4.402113 -0.6180339
vt -4.877642 -0.7725424
vt -4.402113 -0.6180339
vt 4.522543 -1.469463
vt 4.118034 -1.17557
vt -4.522543 -1.469463
vt -4.118034 -1.17557
vt 3.969464 -2.022542
vt 3.675571 -1.618034
vt -3.969464 -2.022542
vt -3.675571 -1.618034
vt 3.272543 -2.377641
vt 3.118034 -1.902113
vt -3.272543 -2.377641
vt -3.118034 -1.902113
vt 2.5 -2.5
vt 2.5 -2
vt -2.5 -2.5
vt -2.5 -2
vt 1.727457 -2.377641
vt 1.881966 -1.902113
vt -1.727457 -2.377641
vt -1.881966 -1.902113
vt 1.030537 -2.022543
vt 1.32443 -1.618034
vt -1.030537 -2.022543
vt -1.32443 -1.618034
vt 0.4774575 -1.469463
vt 0.8819661 -1.175571
vt -0.4774575 -1.469463
vt -0.8819661 -1.175571
vt 0.1223586 -0.7725424
vt 0.5978869 -0.6180339
vt -0.1223586 -0.7725424
vt -0.5978869 -0.6180339

vn -0.9876884 0 0.1564343
vn 0.9876884 0 -0.1564344
vn -0.8910065 0 0.4539907
vn 0.8910065 0 -0.4539905
vn -0.7071069 0 0.7071067
vn 0.7071069 0 -0.7071067
vn -0.4539906 0 0.8910065
vn 0.4539904 0 -0.8910066
vn -0.1564343 0 0.9876884
vn 0.1564344 0 -0.9876884
vn 0.1564343 0 0.9876884
vn -0.1564344 0 -0.9876884
vn 0.4539908 0 0.8910064
vn -0.4539905 0 -0.8910065
vn 0.7071064 0 0.7071072
vn -0.7071066 0 -0.707107
vn 0.8910068 0 0.4539901
vn -0.8910068 0 -0.45399
vn 0.9876884 0 0.1564345
vn -0.9876884 0 -0.1564345
vn 0 -1 0
vn 0 1 0

usemtl ProBuilderDefault
f 3/3/1 4/4/1 2/2/1 1/1/1
f 7/7/2 8/8/2 6/6/2 5/5/2
f 10/11/3 3/12/3 1/10/3 9/9/3
f 8/15/4 12/16/4 11/14/4 6/13/4
f 14/19/5 10/20/5 9/18/5 13/17/5
f 12/23/6 16/24/6 15/22/6 11/21/6
f 18/27/7 14/28/7 13/26/7 17/25/7
f 16/31/8 20/32/8 19/30/8 15/29/8
f 22/35/9 18/36/9 17/34/9 21/33/9
f 20/39/10 24/40/10 23/38/10 19/37/10
f 26/35/11 22/36/11 21/34/11 25/33/11
f 24/39/12 28/40/12 27/38/12 23/37/12
f 30/27/13 26/28/13 25/26/13 29/25/13
f 28/31/14 32/32/14 31/30/14 27/29/14
f 34/19/15 30/20/15 29/18/15 33/17/15
f 32/23/16 36/24/16 35/22/16 31/21/16
f 38/11/17 34/12/17 33/10/17 37/9/17
f 36/15/18 40/16/18 39/14/18 35/13/18
f 42/3/19 38/4/19 37/2/19 41/1/19
f 40/7/20 44/8/20 43/6/20 39/5/20
f 46/4/2 42/42/2 41/41/2 45/2/2
f 44/45/1 48/46/1 47/44/1 43/43/1
f 50/49/4 46/50/4 45/48/4 49/47/4
f 48/53/3 52/54/3 51/52/3 47/51/3
f 54/57/6 50/58/6 49/56/6 53/55/6
f 52/61/5 56/62/5 55/60/5 51/59/5
f 58/65/8 54/66/8 53/64/8 57/63/8
f 56/69/7 60/70/7 59/68/7 55/67/7
f 62/73/10 58/74/10 57/72/10 61/71/10
f 60/77/9 64/78/9 63/76/9 59/75/9
f 66/73/12 62/74/12 61/72/12 65/71/12
f 64/77/11 68/78/11 67/76/11 63/75/11
f 70/65/14 66/66/14 65/64/14 69/63/14
f 68/69/13 72/70/13 71/68/13 67/67/13
f 74/57/16 70/58/16 69/56/16 73/55/16
f 72/61/15 76/62/15 75/60/15 71/59/15
f 78/49/18 74/50/18 73/48/18 77/47/18
f 76/53/17 80/54/17 79/52/17 75/51/17
f 4/4/20 78/42/20 77/41/20 2/2/20
f 80/45/19 7/46/19 5/44/19 79/43/19
f 81/79/1 82/80/1 4/4/1 3/3/1
f 83/81/2 84/82/2 8/8/2 7/7/2
f 85/83/3 81/84/3 3/12/3 10/11/3
f 84/85/4 86/86/4 12/16/4 8/15/4
f 87/87/5 85/88/5 10/20/5 14/19/5
f 86/89/6 88/90/6 16/24/6 12/23/6
f 89/91/7 87/92/7 14/28/7 18/27/7
f 88/93/8 90/94/8 20/32/8 16/31/8
f 91/95/9 89/96/9 18/36/9 22/35/9
f 90/97/10 92/98/10 24/40/10 20/39/10
f 93/95/11 91/96/11 22/36/11 26/35/11
f 92/97/12 94/98/12 28/40/12 24/39/12
f 95/91/13 93/92/13 26/28/13 30/27/13
f 94/93/14 96/94/14 32/32/14 28/31/14
f 97/87/15 95/88/15 30/20/15 34/19/15
f 96/89/16 98/90/16 36/24/16 32/23/16
f 99/83/17 97/84/17 34/12/17 38/11/17
f 98/85/18 100/86/18 40/16/18 36/15/18
f 101/79/19 99/80/19 38/4/19 42/3/19
f 100/81/20 102/82/20 44/8/20 40/7/20
f 103/80/2 101/99/2 42/42/2 46/4/2
f 102/100/1 104/101/1 48/46/1 44/45/1
f 105/102/4 103/103/4 46/50/4 50/49/4
f 104/104/3 106/105/3 52/54/3 48/53/3
f 107/106/6 105/107/6 50/58/6 54/57/6
f 106/108/5 108/109/5 56/62/5 52/61/5
f 109/110/8 107/111/8 54/66/8 58/65/8
f 108/112/7 110/113/7 60/70/7 56/69/7
f 111/114/10 109/115/10 58/74/10 62/73/10
f 110/116/9 112/117/9 64/78/9 60/77/9
f 113/114/12 111/115/12 62/74/12 66/73/12
f 112/116/11 114/117/11 68/78/11 64/77/11
f 115/110/14 113/111/14 66/66/14 70/65/14
f 114/112/13 116/113/13 72/70/13 68/69/13
f 117/106/16 115/107/16 70/58/16 74/57/16
f 116/108/15 118/109/15 76/62/15 72/61/15
f 119/102/18 117/103/18 74/50/18 78/49/18
f 118/104/17 120/105/17 80/54/17 76/53/17
f 82/80/20 119/99/20 78/42/20 4/4/20
f 120/100/19 83/101/19 7/46/19 80/45/19
f 5/119/21 6/120/21 1/118/21 2/2/21
f 84/122/22 83/123/22 82/2/22 81/121/22
f 6/120/21 11/125/21 9/124/21 1/118/21
f 86/127/22 84/122/22 81/121/22 85/126/22
f 11/125/21 15/129/21 13/128/21 9/124/21
f 88/131/22 86/127/22 85/126/22 87/130/22
f 15/129/21 19/133/21 17/132/21 13/128/21
f 90/135/22 88/131/22 87/130/22 89/134/22
f 19/133/21 23/137/21 21/136/21 17/132/21
f 92/139/22 90/135/22 89/134/22 91/138/22
f 23/137/21 27/141/21 25/140/21 21/136/21
f 94/143/22 92/139/22 91/138/22 93/142/22
f 27/141/21 31/145/21 29/144/21 25/140/21
f 96/147/22 94/143/22 93/142/22 95/146/22
f 31/145/21 35/149/21 33/148/21 29/144/21
f 98/151/22 96/147/22 95/146/22 97/150/22
f 35/149/21 39/153/21 37/152/21 33/148/21
f 100/155/22 98/151/22 97/150/22 99/154/22
f 39/153/21 43/157/21 41/156/21 37/152/21
f 102/159/22 100/155/22 99/154/22 101/158/22
f 43/157/21 47/161/21 45/160/21 41/156/21
f 104/163/22 102/159/22 101/158/22 103/162/22
f 47/161/21 51/165/21 49/164/21 45/160/21
f 106/167/22 104/163/22 103/162/22 105/166/22
f 51/165/21 55/169/21 53/168/21 49/164/21
f 108/171/22 106/167/22 105/166/22 107/170/22
f 55/169/21 59/173/21 57/172/21 53/168/21
f 110/175/22 108/171/22 107/170/22 109/174/22
f 59/173/21 63/177/21 61/176/21 57/172/21
f 112/179/22 110/175/22 109/174/22 111/178/22
f 63/177/21 67/181/21 65/180/21 61/176/21
f 114/183/22 112/179/22 111/178/22 113/182/22
f 67/181/21 71/185/21 69/184/21 65/180/21
f 116/187/22 114/183/22 113/182/22 115/186/22
f 71/185/21 75/189/21 73/188/21 69/184/21
f 118/191/22 116/187/22 115/186/22 117/190/22
f 75/189/21 79/193/21 77/192/21 73/188/21
f 120/195/22 118/191/22 117/190/22 119/194/22
f 79/193/21 5/119/21 2/2/21 77/192/21
f 83/123/22 120/195/22 119/194/22 82/2/22

