# ProBuilder 4.5.2
# https://unity3d.com/unity/features/worldbuilding/probuilder
# 23.11.2021 17:09:55

mtllib ./Platform.mtl
o Platform

g Cylinder
v -5.5 -0.5 0
v -5.5 0.5 0
v -5.379812 -0.5 1.143514
v -5.379812 0.5 1.143514
v -5.0245 -0.5 2.237051
v -5.0245 0.5 2.237051
v -4.449594 -0.5 3.232819
v -4.449594 0.5 3.232819
v -3.680218 -0.5 4.087297
v -3.680218 0.5 4.087297
v -2.75 -0.5 4.76314
v -2.75 0.5 4.76314
v -1.699593 -0.5 5.230811
v -1.699593 0.5 5.230811
v -0.5749063 -0.5 5.469871
v -0.5749063 0.5 5.469871
v 0.5749068 -0.5 5.469871
v 0.5749068 0.5 5.469871
v 1.699593 -0.5 5.230811
v 1.699593 0.5 5.230811
v 2.75 -0.5 4.76314
v 2.75 0.5 4.76314
v 3.680219 -0.5 4.087296
v 3.680219 0.5 4.087296
v 4.449594 -0.5 3.232819
v 4.449594 0.5 3.232819
v 5.0245 -0.5 2.237051
v 5.0245 0.5 2.237051
v 5.379812 -0.5 1.143514
v 5.379812 0.5 1.143514
v 5.5 -0.5 -4.808253E-07
v 5.5 0.5 -4.808253E-07
v 5.379812 -0.5 -1.143515
v 5.379812 0.5 -1.143515
v 5.0245 -0.5 -2.237051
v 5.0245 0.5 -2.237051
v 4.449594 -0.5 -3.232818
v 4.449594 0.5 -3.232818
v 3.680219 -0.5 -4.087296
v 3.680219 0.5 -4.087296
v 2.75 -0.5 -4.76314
v 2.75 0.5 -4.76314
v 1.699594 -0.5 -5.230811
v 1.699594 0.5 -5.230811
v 0.5749059 -0.5 -5.469871
v 0.5749059 0.5 -5.469871
v -0.5749059 -0.5 -5.469871
v -0.5749059 0.5 -5.469871
v -1.699594 -0.5 -5.230811
v -1.699594 0.5 -5.230811
v -2.75 -0.5 -4.76314
v -2.75 0.5 -4.76314
v -3.680219 -0.5 -4.087296
v -3.680219 0.5 -4.087296
v -4.449593 -0.5 -3.232819
v -4.449593 0.5 -3.232819
v -5.0245 -0.5 -2.237051
v -5.0245 0.5 -2.237051
v -5.379812 -0.5 -1.143515
v -5.379812 0.5 -1.143515
v 0 -0.5 0
v 0 0.5 0

vt 0 0
vt 0 1
vt 1.149813 0
vt 1.149813 1
vt 1.124687 0
vt 1.124687 1
vt 2.2745 0
vt 2.2745 1
vt 2.175094 0
vt 2.175094 1
vt 3.324907 0
vt 3.324907 1
vt 3.105312 0
vt 3.105312 1
vt 4.255126 0
vt 4.255126 1
vt 3.874686 0
vt 3.874686 1
vt 5.024499 0
vt 5.024499 1
vt 4.449594 0
vt 4.449594 1
vt 5.599408 0
vt 5.599408 1
vt 4.804904 0
vt 4.804904 1
vt 5.954718 0
vt 5.954718 1
vt 4.925094 0
vt 4.925094 1
vt 6.074907 0
vt 6.074907 1
vt 5.024501 0
vt 5.024501 1
vt 2.274505 0
vt 2.274505 1
vt -1.149808 0
vt -1.149808 1
vt -2.274508 0
vt -2.274508 1
vt -1.124696 0
vt -1.124696 1
vt -3.324898 0
vt -3.324898 1
vt -2.175086 0
vt -2.175086 1
vt -4.255129 0
vt -4.255129 1
vt -3.105315 0
vt -3.105315 1
vt -5.024499 0
vt -5.024499 1
vt -3.874686 0
vt -3.874686 1
vt -5.599407 0
vt -5.599407 1
vt -4.449594 0
vt -4.449594 1
vt -5.954718 0
vt -5.954718 1
vt -4.804904 0
vt -4.804904 1
vt -6.074906 0
vt -6.074906 1
vt -4.925094 0
vt -4.925094 1
vt -2.274499 0
vt -2.274499 1
vt 5.5 0
vt 0.1201882 1.143514
vt -5.5 0
vt -0.1201882 1.143514
vt 0.4755001 2.237051
vt -0.4755001 2.237051
vt 1.050406 3.232819
vt -1.050406 3.232819
vt 1.819782 4.087297
vt -1.819782 4.087297
vt 2.75 4.76314
vt -2.75 4.76314
vt 3.800407 5.230811
vt -3.800407 5.230811
vt 4.925094 5.469871
vt -4.925094 5.469871
vt 6.074907 5.469871
vt -6.074907 5.469871
vt 7.199593 5.230811
vt -7.199593 5.230811
vt 8.25 4.76314
vt -8.25 4.76314
vt 9.180219 4.087296
vt -9.180219 4.087296
vt 9.949594 3.232819
vt -9.949594 3.232819
vt 10.5245 2.237051
vt -10.5245 2.237051
vt 10.87981 1.143514
vt -10.87981 1.143514
vt 11 -4.808253E-07
vt -11 -4.808253E-07
vt 10.87981 -1.143515
vt -10.87981 -1.143515
vt 10.5245 -2.237051
vt -10.5245 -2.237051
vt 9.949594 -3.232818
vt -9.949594 -3.232818
vt 9.180219 -4.087296
vt -9.180219 -4.087296
vt 8.25 -4.76314
vt -8.25 -4.76314
vt 7.199594 -5.230811
vt -7.199594 -5.230811
vt 6.074906 -5.469871
vt -6.074906 -5.469871
vt 4.925094 -5.469871
vt -4.925094 -5.469871
vt 3.800406 -5.230811
vt -3.800406 -5.230811
vt 2.75 -4.76314
vt -2.75 -4.76314
vt 1.819781 -4.087296
vt -1.819781 -4.087296
vt 1.050407 -3.232819
vt -1.050407 -3.232819
vt 0.4754996 -2.237051
vt -0.4754996 -2.237051
vt 0.1201882 -1.143515
vt -0.1201882 -1.143515

vn -1 0 1.123743E-08
vn -0.9781476 0 0.2079118
vn -0.9135454 0 0.4067366
vn -0.8090171 0 0.5877851
vn -0.6691305 0 0.7431449
vn -0.5 0 0.8660254
vn -0.3090171 0 0.9510565
vn -0.1045284 0 0.9945219
vn 0.1045285 0 0.9945219
vn 0.309017 0 0.9510565
vn 0.5 0 0.8660254
vn 0.6691304 0 0.743145
vn 0.8090171 0 0.587785
vn 0.9135455 0 0.4067365
vn 0.9781476 0 0.2079117
vn 1 0 0
vn 0.9781476 0 -0.2079119
vn 0.9135454 0 -0.4067366
vn 0.8090171 0 -0.587785
vn 0.6691306 0 -0.7431449
vn 0.5000001 0 -0.8660254
vn 0.3090171 0 -0.9510565
vn 0.1045285 0 -0.9945219
vn -0.1045285 0 -0.9945219
vn -0.3090171 0 -0.9510565
vn -0.5 0 -0.8660254
vn -0.6691306 0 -0.7431448
vn -0.8090171 0 -0.5877852
vn -0.9135454 0 -0.4067367
vn -0.9781476 0 -0.2079117
vn 0 -1 0
vn 0 1 0

usemtl ProBuilderDefault
f 1/1/31 61/69/31 3/70/31
f 3/70/31 61/69/31 5/73/31
f 5/73/31 61/69/31 7/75/31
f 7/75/31 61/69/31 9/77/31
f 9/77/31 61/69/31 11/79/31
f 11/79/31 61/69/31 13/81/31
f 13/81/31 61/69/31 15/83/31
f 15/83/31 61/69/31 17/85/31
f 17/85/31 61/69/31 19/87/31
f 19/87/31 61/69/31 21/89/31
f 21/89/31 61/69/31 23/91/31
f 23/91/31 61/69/31 25/93/31
f 25/93/31 61/69/31 27/95/31
f 27/95/31 61/69/31 29/97/31
f 29/97/31 61/69/31 31/99/31
f 31/99/31 61/69/31 33/101/31
f 33/101/31 61/69/31 35/103/31
f 35/103/31 61/69/31 37/105/31
f 37/105/31 61/69/31 39/107/31
f 39/107/31 61/69/31 41/109/31
f 41/109/31 61/69/31 43/111/31
f 43/111/31 61/69/31 45/113/31
f 45/113/31 61/69/31 47/115/31
f 47/115/31 61/69/31 49/117/31
f 49/117/31 61/69/31 51/119/31
f 51/119/31 61/69/31 53/121/31
f 53/121/31 61/69/31 55/123/31
f 55/123/31 61/69/31 57/125/31
f 57/125/31 61/69/31 59/127/31
f 59/127/31 61/69/31 1/1/31
f 4/72/32 62/71/32 2/1/32
f 6/74/32 62/71/32 4/72/32
f 8/76/32 62/71/32 6/74/32
f 10/78/32 62/71/32 8/76/32
f 12/80/32 62/71/32 10/78/32
f 14/82/32 62/71/32 12/80/32
f 16/84/32 62/71/32 14/82/32
f 18/86/32 62/71/32 16/84/32
f 20/88/32 62/71/32 18/86/32
f 22/90/32 62/71/32 20/88/32
f 24/92/32 62/71/32 22/90/32
f 26/94/32 62/71/32 24/92/32
f 28/96/32 62/71/32 26/94/32
f 30/98/32 62/71/32 28/96/32
f 32/100/32 62/71/32 30/98/32
f 34/102/32 62/71/32 32/100/32
f 36/104/32 62/71/32 34/102/32
f 38/106/32 62/71/32 36/104/32
f 40/108/32 62/71/32 38/106/32
f 42/110/32 62/71/32 40/108/32
f 44/112/32 62/71/32 42/110/32
f 46/114/32 62/71/32 44/112/32
f 48/116/32 62/71/32 46/114/32
f 50/118/32 62/71/32 48/116/32
f 52/120/32 62/71/32 50/118/32
f 54/122/32 62/71/32 52/120/32
f 56/124/32 62/71/32 54/122/32
f 58/126/32 62/71/32 56/124/32
f 60/128/32 62/71/32 58/126/32
f 2/1/32 62/71/32 60/128/32
f 4/4/2 2/2/1 1/1/1
f 1/1/1 3/3/2 4/4/2
f 6/8/3 4/6/2 3/5/2
f 3/5/2 5/7/3 6/8/3
f 8/12/4 6/10/3 5/9/3
f 5/9/3 7/11/4 8/12/4
f 10/16/5 8/14/4 7/13/4
f 7/13/4 9/15/5 10/16/5
f 12/20/6 10/18/5 9/17/5
f 9/17/5 11/19/6 12/20/6
f 14/24/7 12/22/6 11/21/6
f 11/21/6 13/23/7 14/24/7
f 16/28/8 14/26/7 13/25/7
f 13/25/7 15/27/8 16/28/8
f 18/32/9 16/30/8 15/29/8
f 15/29/8 17/31/9 18/32/9
f 20/28/10 18/26/9 17/25/9
f 17/25/9 19/27/10 20/28/10
f 22/24/11 20/22/10 19/21/10
f 19/21/10 21/23/11 22/24/11
f 24/34/12 22/18/11 21/17/11
f 21/17/11 23/33/12 24/34/12
f 26/16/13 24/14/12 23/13/12
f 23/13/12 25/15/13 26/16/13
f 28/12/14 26/10/13 25/9/13
f 25/9/13 27/11/14 28/12/14
f 30/36/15 28/6/14 27/5/14
f 27/5/14 29/35/15 30/36/15
f 32/4/16 30/2/15 29/1/15
f 29/1/15 31/3/16 32/4/16
f 34/2/17 32/38/16 31/37/16
f 31/37/16 33/1/17 34/2/17
f 36/42/18 34/40/17 33/39/17
f 33/39/17 35/41/18 36/42/18
f 38/46/19 36/44/18 35/43/18
f 35/43/18 37/45/19 38/46/19
f 40/50/20 38/48/19 37/47/19
f 37/47/19 39/49/20 40/50/20
f 42/54/21 40/52/20 39/51/20
f 39/51/20 41/53/21 42/54/21
f 44/58/22 42/56/21 41/55/21
f 41/55/21 43/57/22 44/58/22
f 46/62/23 44/60/22 43/59/22
f 43/59/22 45/61/23 46/62/23
f 48/66/24 46/64/23 45/63/23
f 45/63/23 47/65/24 48/66/24
f 50/62/25 48/60/24 47/59/24
f 47/59/24 49/61/25 50/62/25
f 52/58/26 50/56/25 49/55/25
f 49/55/25 51/57/26 52/58/26
f 54/54/27 52/52/26 51/51/26
f 51/51/26 53/53/27 54/54/27
f 56/50/28 54/48/27 53/47/27
f 53/47/27 55/49/28 56/50/28
f 58/46/29 56/44/28 55/43/28
f 55/43/28 57/45/29 58/46/29
f 60/42/30 58/68/29 57/67/29
f 57/67/29 59/41/30 60/42/30
f 2/2/1 60/38/30 59/37/30
f 59/37/30 1/1/1 2/2/1

